<svg width="375" height="812" viewBox="0 0 375 812" fill="none" xmlns="http://www.w3.org/2000/svg">
<g clip-path="url(#clip0_61385:181)">
<rect width="375" height="812" fill="#202024"/>
<circle cx="278" cy="99" r="300" transform="rotate(-180 278 99)" fill="url(#paint0_radial_61385:181)"/>
<circle cx="98" cy="99" r="300" transform="rotate(-180 98 99)" fill="url(#paint1_radial_61385:181)"/>
<mask id="mask0_61385:181" style="mask-type:alpha" maskUnits="userSpaceOnUse" x="0" y="0" width="375" height="812">
<rect width="375" height="812" fill="#202024"/>
</mask>
<g mask="url(#mask0_61385:181)">
<path d="M375 168.101V-310.699L187.478 -418.486L-0.0446777 -310.699V168.101L187.478 275.894L375 168.101Z" fill="url(#paint2_linear_61385:181)"/>
<g style="mix-blend-mode:luminosity" opacity="0.4">
<path d="M1.83656 61.3931V168.797L95.1274 222.505L188.418 168.797V61.3931L95.1274 7.68578L1.83656 61.3931Z" fill="url(#paint3_linear_61385:181)"/>
<path d="M1.83656 -46.0166V61.3877L95.1274 115.095L188.418 61.3877V-46.0166L95.1274 -99.7239L1.83656 -46.0166Z" fill="url(#paint4_linear_61385:181)"/>
<path d="M281.709 -99.6961V7.70821L188.418 61.4155L95.1274 7.70821V-99.6961L188.418 -153.403L281.709 -99.6961Z" fill="url(#paint5_linear_61385:181)"/>
<path d="M188.418 168.797V61.3927L281.709 7.68539L375 61.3927V168.797L281.709 222.504L188.418 168.797Z" fill="url(#paint6_linear_61385:181)"/>
<path d="M375 -46.0166V61.3877L281.709 115.095L188.418 61.3877V-46.0166L281.709 -99.7239L375 -46.0166Z" fill="url(#paint7_linear_61385:181)"/>
<path d="M281.709 222.527V115.123L188.418 61.4155L95.1274 115.123L95.1274 222.527L188.418 276.234L281.709 222.527Z" fill="url(#paint8_linear_61385:181)"/>
<path d="M97.999 79.1665C93.582 79.1665 90 82.7625 90 87.1985C90 90.7465 92.292 93.7565 95.472 94.8195C95.872 94.8935 96.018 94.6455 96.018 94.4325C96.018 94.2415 96.011 93.7365 96.007 93.0665C93.782 93.5515 93.312 91.9895 93.312 91.9895C92.949 91.0615 92.424 90.8145 92.424 90.8145C91.697 90.3165 92.478 90.3265 92.478 90.3265C93.281 90.3835 93.703 91.1545 93.703 91.1545C94.417 92.3815 95.576 92.0275 96.032 91.8215C96.104 91.3025 96.311 90.9485 96.54 90.7475C94.764 90.5445 92.896 89.8555 92.896 86.7785C92.896 85.9015 93.208 85.1845 93.72 84.6225C93.637 84.4195 93.363 83.6025 93.798 82.4975C93.798 82.4975 94.47 82.2815 95.998 83.3205C96.636 83.1425 97.32 83.0535 98.001 83.0505C98.68 83.0545 99.365 83.1425 100.004 83.3215C101.531 82.2825 102.202 82.4985 102.202 82.4985C102.638 83.6045 102.364 84.4205 102.282 84.6235C102.795 85.1855 103.104 85.9025 103.104 86.7795C103.104 89.8645 101.234 90.5435 99.452 90.7425C99.739 90.9905 99.995 91.4805 99.995 92.2295C99.995 93.3035 99.985 94.1695 99.985 94.4325C99.985 94.6475 100.129 94.8975 100.535 94.8185C103.71 93.7545 106 90.7455 106 87.1985C106 82.7625 102.418 79.1665 97.999 79.1665Z" fill="#C4C4CC"/>
</g>
</g>
</g>
<defs>
<radialGradient id="paint0_radial_61385:181" cx="0" cy="0" r="1" gradientUnits="userSpaceOnUse" gradientTransform="translate(278 99) rotate(90) scale(300)">
<stop stop-color="#FFC323"/>
<stop offset="1" stop-color="#121214" stop-opacity="0"/>
</radialGradient>
<radialGradient id="paint1_radial_61385:181" cx="0" cy="0" r="1" gradientUnits="userSpaceOnUse" gradientTransform="translate(98 99) rotate(90) scale(300)">
<stop stop-color="#FF3D6E"/>
<stop offset="1" stop-color="#121214" stop-opacity="0"/>
</radialGradient>
<linearGradient id="paint2_linear_61385:181" x1="-67.9497" y1="58.9385" x2="436.115" y2="232.357" gradientUnits="userSpaceOnUse">
<stop stop-color="#FF008E"/>
<stop offset="1" stop-color="#FFCD1E"/>
</linearGradient>
<linearGradient id="paint3_linear_61385:181" x1="95.1274" y1="217.565" x2="2.23827" y2="59.047" gradientUnits="userSpaceOnUse">
<stop stop-color="#8257E5"/>
<stop offset="1" stop-color="#FF008E" stop-opacity="0"/>
</linearGradient>
<linearGradient id="paint4_linear_61385:181" x1="95.1274" y1="110.155" x2="2.23825" y2="-48.3627" gradientUnits="userSpaceOnUse">
<stop stop-color="#8257E5"/>
<stop offset="1" stop-color="#FF008E" stop-opacity="0"/>
</linearGradient>
<linearGradient id="paint5_linear_61385:181" x1="95.1275" y1="-105.732" x2="281.421" y2="6.68569" gradientUnits="userSpaceOnUse">
<stop stop-color="#FF008E" stop-opacity="0"/>
<stop offset="1" stop-color="#FFCD1E"/>
</linearGradient>
<linearGradient id="paint6_linear_61385:181" x1="375" y1="174.833" x2="188.706" y2="62.4152" gradientUnits="userSpaceOnUse">
<stop stop-color="#FF008E" stop-opacity="0"/>
<stop offset="1" stop-color="#FFCD1E"/>
</linearGradient>
<linearGradient id="paint7_linear_61385:181" x1="281.709" y1="110.155" x2="374.598" y2="-48.3627" gradientUnits="userSpaceOnUse">
<stop stop-color="#8257E5"/>
<stop offset="1" stop-color="#FF008E" stop-opacity="0"/>
</linearGradient>
<linearGradient id="paint8_linear_61385:181" x1="188.418" y1="66.3552" x2="281.307" y2="224.873" gradientUnits="userSpaceOnUse">
<stop stop-color="#8257E5"/>
<stop offset="1" stop-color="#FF008E" stop-opacity="0"/>
</linearGradient>
<clipPath id="clip0_61385:181">
<rect width="375" height="812" fill="white"/>
</clipPath>
</defs>
</svg>
